<?xml version="1.0" encoding="UTF-8" standalone="no"?>
<!-- Created with Inkscape (http://www.inkscape.org/) -->

<svg
   width="1197.8721"
   height="698.02979"
   viewBox="0 0 316.93699 184.68704"
   version="1.1"
   id="svg1"
   sodipodi:docname="fluent-english.svg"
   xml:space="preserve"
   inkscape:version="1.4.2 (ebf0e940d0, 2025-05-08)"
   inkscape:export-filename="fluent-english.svg"
   inkscape:export-xdpi="96"
   inkscape:export-ydpi="96"
   xmlns:inkscape="http://www.inkscape.org/namespaces/inkscape"
   xmlns:sodipodi="http://sodipodi.sourceforge.net/DTD/sodipodi-0.dtd"
   xmlns:xlink="http://www.w3.org/1999/xlink"
   xmlns="http://www.w3.org/2000/svg"
   xmlns:svg="http://www.w3.org/2000/svg"
   xmlns:rdf="http://www.w3.org/1999/02/22-rdf-syntax-ns#"
   xmlns:cc="http://creativecommons.org/ns#"
   xmlns:dc="http://purl.org/dc/elements/1.1/"><sodipodi:namedview
     id="namedview1"
     pagecolor="#ffffff"
     bordercolor="#000000"
     borderopacity="0.25"
     inkscape:showpageshadow="2"
     inkscape:pageopacity="0.0"
     inkscape:pagecheckerboard="0"
     inkscape:deskcolor="#d1d1d1"
     inkscape:zoom="0.36571428"
     inkscape:cx="322.65626"
     inkscape:cy="462.10938"
     inkscape:window-width="1366"
     inkscape:window-height="715"
     inkscape:window-x="0"
     inkscape:window-y="29"
     inkscape:window-maximized="1"
     inkscape:current-layer="svg1"><inkscape:page
       x="0"
       y="0"
       width="316.93698"
       height="184.68704"
       id="page2"
       margin="0"
       bleed="0" /></sodipodi:namedview><defs
     id="defs1"><rect
       x="-322.65625"
       y="62.890617"
       width="478.51562"
       height="138.633"
       id="rect4" /><rect
       x="268.57144"
       y="120"
       width="362.85715"
       height="70.274841"
       id="rect32" /><rect
       x="268.57144"
       y="120"
       width="362.85715"
       height="70.274841"
       id="rect32-7" /><rect
       x="268.57144"
       y="120"
       width="362.85715"
       height="70.274841"
       id="rect32-6" /></defs><metadata
     id="metadata1"><rdf:RDF><cc:Work
         rdf:about=""><dc:format>image/svg+xml</dc:format><dc:type
           rdf:resource="http://purl.org/dc/dcmitype/StillImage" /></cc:Work></rdf:RDF></metadata><rect
     style="fill:#b3b3b3;fill-opacity:1;stroke-width:0.264583"
     id="rect1"
     width="315.9881"
     height="182.94048"
     x="1.0236059"
     y="-0.075641647"
     transform="rotate(0.3424984)"
     ry="11.666133" /><g
     id="g38"
     transform="matrix(0.80226627,0,0,0.82209035,64.512916,34.007838)"><path
       style="fill:#b3b3b3;stroke-width:0.264583"
       d="m 73.327384,49.20009 5.084217,-5.242898 h -5.084217 z"
       id="path2" /><path
       style="fill:#b3b3b3;stroke-width:0.264583"
       d="m 73.327384,79.252349 v -5.057066 h 3.637277 z"
       id="path3" /><path
       style="fill:#b3b3b3;stroke-width:0.264583"
       d="m 73.327384,112.27048 v -4.81329 h 3.637277 z"
       id="path4" /></g><g
     id="g3"
     transform="matrix(0.8324011,0,0,0.80597606,23.247655,22.804773)"><rect
       style="fill:#cccccc;fill-opacity:1;stroke-width:0.264583"
       id="rect37"
       width="182.94048"
       height="117.92857"
       x="18.898808"
       y="25.814333"
       ry="23.385759"
       transform="matrix(0.80226627,0,0,0.82209036,64.794431,34.268484)" /><g
       id="g1"
       transform="matrix(0.84971074,0,0,0.911386,8.5803453,1.4606294)"><rect
         style="fill:#e3dedb;fill-opacity:1;stroke-width:0.25405"
         id="rect31-9"
         width="96.005951"
         height="18.14286"
         x="73.327385"
         y="107.45719"
         transform="translate(61.057498,29.675865)" /><text
         xml:space="preserve"
         transform="matrix(0.26458333,0,0,0.26458333,87.0288,106.98737)"
         id="text31-06"
         style="font-style:normal;font-variant:normal;font-weight:normal;font-stretch:normal;font-size:37.3333px;font-family:'Comic Neue';-inkscape-font-specification:'Comic Neue, Normal';font-variant-ligatures:normal;font-variant-caps:normal;font-variant-numeric:normal;font-variant-east-asian:normal;text-align:start;writing-mode:lr-tb;direction:ltr;white-space:pre;shape-inside:url(#rect32-6);display:inline;fill:#1a1a1a;fill-opacity:1"><tspan
           x="268.57227"
           y="153.88403"
           id="tspan1">Live Practice</tspan></text><rect
         style="fill:#e3dedb;fill-opacity:1;stroke-width:0.293414"
         id="rect30"
         width="96.005951"
         height="18.593554"
         x="73.327385"
         y="43.957191"
         transform="translate(61.057498,29.675865)" /><rect
         style="fill:#e3dedb;fill-opacity:1;stroke-width:0.25405"
         id="rect31"
         width="96.005951"
         height="18.14286"
         x="73.327385"
         y="74.195282"
         transform="translate(61.057498,29.675865)" /><text
         xml:space="preserve"
         transform="matrix(0.26458333,0,0,0.26458333,87.0288,74.900313)"
         id="text31-0"
         style="font-style:normal;font-variant:normal;font-weight:normal;font-stretch:normal;font-size:37.3333px;font-family:'Comic Neue';-inkscape-font-specification:'Comic Neue, Normal';font-variant-ligatures:normal;font-variant-caps:normal;font-variant-numeric:normal;font-variant-east-asian:normal;text-align:start;writing-mode:lr-tb;direction:ltr;white-space:pre;shape-inside:url(#rect32-7);display:inline;fill:#1a1a1a;fill-opacity:1"><tspan
           x="268.57227"
           y="153.88403"
           id="tspan2">Grammar</tspan></text><text
         xml:space="preserve"
         transform="matrix(0.26458333,0,0,0.26458333,87.0288,44.887565)"
         id="text31"
         style="font-style:normal;font-variant:normal;font-weight:normal;font-stretch:normal;font-size:37.3333px;font-family:'Comic Neue';-inkscape-font-specification:'Comic Neue, Normal';font-variant-ligatures:normal;font-variant-caps:normal;font-variant-numeric:normal;font-variant-east-asian:normal;text-align:start;writing-mode:lr-tb;direction:ltr;white-space:pre;shape-inside:url(#rect32);display:inline;fill:#1a1a1a;fill-opacity:1"><tspan
           x="268.57227"
           y="153.88403"
           id="tspan3">Vocabulary</tspan></text><use
         x="0"
         y="0"
         xlink:href="#path1"
         id="use1-7-2"
         transform="translate(0,61.719811)" /><use
         x="0"
         y="0"
         xlink:href="#path1"
         id="use1-7"
         transform="translate(-0.72347006,29.99449)" /><path
         d="m 120.61304,92.728733 a 1.4404459,1.8796971 0 0 1 -1.0222,-0.560554 l -3.16384,-4.104452 -3.16384,4.107138 a 1.4404459,1.8796971 0 0 1 -1.59221,0.408834 1.4404459,1.8796971 0 0 1 -0.90285,-1.761544 v -10.84451 a 2.5722249,3.356602 0 0 1 2.57223,-3.356602 h 6.17334 a 2.5722249,3.356602 0 0 1 2.57222,3.356602 v 10.84451 a 1.4404459,1.8796971 0 0 1 -0.90079,1.761544 1.4749138,1.9246756 0 0 1 -0.57206,0.149034 z m -7.27271,-14.769049 a 1.5433349,2.0139612 0 0 0 -1.54334,2.013961 v 10.84451 a 0.43367712,0.56592309 0 0 0 0.73926,0.402791 v 0 l 3.53064,-4.579076 a 0.51444499,0.6713204 0 0 1 0.72537,0 l 3.52652,4.577733 a 0.43367712,0.56592309 0 0 0 0.73925,-0.402791 V 79.973645 a 1.5433349,2.0139612 0 0 0 -1.54333,-2.013961 z"
         id="path1"
         style="stroke-width:0.587671" /></g></g><g
     id="g2"
     transform="matrix(0.62826057,0,0,0.6646947,43.910797,30.878525)"><rect
       style="fill:#cccccc;stroke-width:0.264583"
       id="rect2"
       width="182.94048"
       height="36.679977"
       x="-121.16837"
       y="9.4945955"
       ry="18.339989"
       transform="translate(201.12468,5.6982735)" /><text
       xml:space="preserve"
       transform="matrix(0.26458333,0,0,0.26458333,203.87175,5.3571702)"
       id="text3"
       style="font-size:64px;font-family:'Comic Neue';-inkscape-font-specification:'Comic Neue, Normal';text-align:start;writing-mode:lr-tb;direction:ltr;white-space:pre;shape-inside:url(#rect4);display:inline;fill:#ff0000"><tspan
         x="-322.65625"
         y="120.97758"
         id="tspan5"><tspan
           style="fill:#1a1a1a"
           id="tspan4">Fluent English</tspan></tspan></text></g></svg>
