<?xml version="1.0" encoding="UTF-8" standalone="no"?>
<!-- Created with Inkscape (http://www.inkscape.org/) -->

<svg
   width="1200"
   height="700.00006"
   viewBox="0 0 317.49999 185.20835"
   version="1.1"
   id="svg1"
   inkscape:version="1.4.2 (ebf0e940d0, 2025-05-08)"
   sodipodi:docname="site.svg"
   xml:space="preserve"
   xmlns:inkscape="http://www.inkscape.org/namespaces/inkscape"
   xmlns:sodipodi="http://sodipodi.sourceforge.net/DTD/sodipodi-0.dtd"
   xmlns="http://www.w3.org/2000/svg"
   xmlns:svg="http://www.w3.org/2000/svg"
   xmlns:rdf="http://www.w3.org/1999/02/22-rdf-syntax-ns#"
   xmlns:cc="http://creativecommons.org/ns#"
   xmlns:dc="http://purl.org/dc/elements/1.1/"><defs
     id="defs1"><rect
       x="282.85715"
       y="242.85715"
       width="640"
       height="185.71429"
       id="rect4" /></defs><sodipodi:namedview
     id="base"
     pagecolor="#ffffff"
     bordercolor="#000000"
     borderopacity="0.3"
     inkscape:pageopacity="0.0"
     inkscape:pageshadow="2"
     inkscape:zoom="0.35"
     inkscape:cx="534.28571"
     inkscape:cy="437.14286"
     inkscape:document-units="mm"
     inkscape:showpageshadow="2"
     inkscape:pagecheckerboard="0"
     inkscape:deskcolor="#d1d1d1"
     inkscape:window-width="1366"
     inkscape:window-height="715"
     inkscape:window-x="0"
     inkscape:window-y="29"
     inkscape:window-maximized="1"
     inkscape:current-layer="svg1"><inkscape:page
       x="0"
       y="0"
       width="317.5"
       height="185.20834"
       id="page2"
       margin="0"
       bleed="0" /></sodipodi:namedview><metadata
     id="metadata1"><rdf:RDF><cc:Work
         rdf:about=""><dc:format>image/svg+xml</dc:format><dc:type
           rdf:resource="http://purl.org/dc/dcmitype/StillImage" /></cc:Work></rdf:RDF></metadata><rect
     style="fill:#b3b3b3;stroke-width:0.264583"
     id="rect1"
     width="317.5"
     height="185.20834"
     x="9.4739029e-22"
     y="2.3448344e-13"
     ry="89.535492"
     rx="5.6843419e-14"
     inkscape:label="rect1" /><rect
     style="fill:#cccccc;stroke-width:0.264583"
     id="rect2"
     width="317.5"
     height="185.20833"
     x="3.0079641e-14"
     y="2.3448344e-13"
     ry="92.604164"
     rx="31.75" /><text
     xml:space="preserve"
     transform="matrix(0.26458333,0,0,0.26458333,22.678571,10.357218)"
     id="text4"
     style="font-size:64px;font-family:'Comic Neue';-inkscape-font-specification:'Comic Neue, Normal';text-align:start;writing-mode:lr-tb;direction:ltr;white-space:pre;shape-inside:url(#rect4);display:inline;fill:#28170b"><tspan
       x="282.85742"
       y="300.94438"
       id="tspan1">Upcoming Service...</tspan></text><path
     d="M 87.186119,96.289235 A 2.2386962,2.4163349 0 0 1 85.597444,95.56865 l -4.917136,-5.27624 -4.917137,5.27969 a 2.2386962,2.4163349 0 0 1 -2.474558,0.525553 2.2386962,2.4163349 0 0 1 -1.403183,-2.26445 V 79.892675 a 3.9976717,4.3148839 0 0 1 3.997672,-4.314884 h 9.594412 a 3.9976717,4.3148839 0 0 1 3.997671,4.314884 v 13.940528 a 2.2386962,2.4163349 0 0 1 -1.399984,2.26445 2.2922649,2.4741544 0 0 1 -0.889082,0.191582 z M 75.883102,77.303745 a 2.3986031,2.5889303 0 0 0 -2.398603,2.58893 v 13.940528 a 0.67400747,0.72748944 0 0 0 1.148931,0.517785 v 0 l 5.487204,-5.886365 a 0.79953438,0.86297676 0 0 1 1.127343,0 l 5.480809,5.88464 a 0.67400747,0.72748944 0 0 0 1.148929,-0.517786 V 79.892675 a 2.3986031,2.5889303 0 0 0 -2.398602,-2.58893 z"
     id="path1"
     style="stroke-width:0.830646" /></svg>
